<!-- Generated by IcoMoon.io -->
<svg version="1.1" xmlns="http://www.w3.org/2000/svg" width="32" height="32" viewBox="0 0 32 32">
<title>astronaut</title>
<path fill="#2196f3" d="M31.974 4.524c-0.064-0.19-0.226-0.33-0.424-0.362h-0.006l-1.911-0.278-0.855-1.731c-0.179-0.365-0.777-0.365-0.956 0l-0.855 1.731-1.911 0.278c-0.26 0.039-0.456 0.261-0.456 0.528 0 0.149 0.061 0.285 0.16 0.382v0l1.383 1.348-0.326 1.903c-0.005 0.028-0.008 0.060-0.008 0.092 0 0.294 0.238 0.532 0.532 0.532 0.092 0 0.178-0.023 0.253-0.064l-0.003 0.001 1.709-0.899 1.709 0.899c0.072 0.038 0.157 0.060 0.247 0.060 0.295 0 0.534-0.239 0.534-0.534 0-0.032-0.003-0.064-0.008-0.095v0.006l-0.326-1.903 1.383-1.348c0.099-0.097 0.161-0.233 0.161-0.382 0-0.060-0.010-0.118-0.028-0.171l0.002 0.008zM29.511 5.851c-0.099 0.096-0.161 0.231-0.161 0.38 0 0.032 0.003 0.064 0.008 0.095v-0.003l0.191 1.114-1-0.526c-0.072-0.040-0.158-0.063-0.25-0.063s-0.179 0.024-0.254 0.066l0.006-0.002-1 0.526 0.191-1.114c0.005-0.028 0.008-0.060 0.008-0.092 0-0.149-0.061-0.283-0.16-0.379v0l-0.811-0.789 1.119-0.163c0.177-0.026 0.324-0.137 0.401-0.289l0.001-0.003 0.5-1.013 0.5 1.013c0.078 0.155 0.224 0.266 0.399 0.292h0.003l1.119 0.162-0.809 0.79zM26.134 20.522h-1.067v1.067h1.067v-1.067zM26.134 22.656h-1.067v1.066h1.067v-1.066zM27.2 21.589h-1.067v1.067h1.067v-1.067zM25.067 21.589h-1.067v1.067h1.067v-1.067zM22.4 26.389h-1.067v1.067h1.067v-1.067zM22.4 28.523h-1.067v1.067h1.067v-1.067zM23.467 27.456h-1.067v1.067h1.067v-1.067zM21.334 27.456h-1.067v1.067h1.067v-1.067zM16 24.256h-1.066v1.067h1.066v-1.067zM16 26.389h-1.066v1.067h1.066v-1.067zM17.067 25.322h-1.067v1.067h1.067v-1.067zM14.934 25.322h-1.067v1.067h1.067v-1.067zM5.867 6.122h-1.066v1.066h1.066v-1.066zM5.867 8.256h-1.066v1.066h1.066v-1.066zM6.933 7.189h-1.067v1.067h1.066v-1.067zM4.8 7.189h-1.067v1.067h1.067v-1.067z"></path>
<path fill="#212121" d="M24.715 14.16c-0.278-0.374-0.693-0.633-1.169-0.702l-0.010-0.001-0.009-0.001c-0.077-0.012-0.166-0.019-0.257-0.019-0.412 0-0.791 0.141-1.091 0.377l0.008-0.006-1.253 0.96-1.898 1.417-1.358-0.541c2.421-1.086 4.113-3.508 4.113-6.32 0-3.823-3.122-6.934-6.961-6.934s-6.961 3.11-6.961 6.934c0 1.386 0.415 2.674 1.12 3.759l-2.768-0.024c-0.009 0-0.016 0.005-0.023 0.005-0.058 0.003-0.112 0.015-0.162 0.034l0.003-0.001 0.004-0.001c-0.013 0.005-0.026 0.007-0.038 0.013-0.006 0.003-0.013 0.003-0.019 0.006l-3.234 1.597-1.893 0.91c-0.025 0.011-0.046 0.023-0.065 0.037l0.002-0.002c-0.482 0.324-0.795 0.867-0.795 1.484 0 0.3 0.074 0.584 0.206 0.832l-0.010-0.020c0.22 0.424 0.592 0.742 1.043 0.885l0.013 0.003c0.161 0.053 0.346 0.084 0.539 0.084 0.311 0 0.604-0.080 0.858-0.221l-0.018 0.010 1.388-0.738 2.264-1.169 1.357-0.008-6.782 6.749c-0.303 0.298-0.491 0.713-0.491 1.171 0 0.001 0 0.001 0 0.002v0 0.005c0.002 0.919 0.748 1.663 1.667 1.664h0.002c0.001 0 0.002 0 0.003 0 0.459 0 0.875-0.185 1.177-0.485v0l1.314-1.309 1.741-1.3 0.901 0.897-3.102 3.088c-0.303 0.299-0.491 0.713-0.491 1.172 0 0.001 0 0.001 0 0.002v0 0.004c0 0.001 0 0.001 0 0.002 0 0.918 0.744 1.662 1.662 1.662 0.001 0 0.003 0 0.004 0h0.003c0.001 0 0.002 0 0.003 0 0.459 0 0.875-0.185 1.177-0.485v0l4.488-4.472c0.007-0.006 0.016-0.009 0.022-0.016l5.166-5.658 3.471 0.494c0.023 0.004 0.049 0.006 0.076 0.006 0.067 0 0.131-0.014 0.189-0.039l-0.003 0.001c0.017-0.006 0.032-0.015 0.049-0.023 0.019-0.010 0.039-0.015 0.058-0.027l3.213-2.133c0.012-0.008 0.018-0.021 0.029-0.030 0.013-0.010 0.029-0.014 0.041-0.026l1.271-1.191c0.348-0.326 0.564-0.787 0.564-1.3 0-0.4-0.132-0.769-0.355-1.066l0.003 0.005zM2.13 17.77c-0.098 0.055-0.215 0.087-0.339 0.087-0.080 0-0.158-0.013-0.23-0.038l0.005 0.002 0.005 0.001c-0.293-0.094-0.502-0.365-0.502-0.684 0-0.234 0.112-0.442 0.286-0.573l0.004-0.002 1.314-0.632 0.449 1.313-0.992 0.527zM5.627 15.942l-1.548 0.8-0.255-0.746-0.184-0.537 2.027-1.001-0.040 1.484zM20.727 9.322c0 0.918-0.219 1.785-0.599 2.56l-4.181-1.899c-0.044-0.573-0.34-1.068-0.776-1.38l-0.012-0.008 1.464-4.86c2.377 0.756 4.104 2.974 4.104 5.588zM8.938 9.322c0-3.235 2.644-5.867 5.894-5.867 0.253 0 0.5 0.022 0.745 0.053l-1.432 4.753c-0.019 0-0.037-0.006-0.057-0.006h-0.001c0 0 0 0 0 0-1.032 0-1.869 0.835-1.872 1.867v0c0.003 1.031 0.84 1.866 1.872 1.867h0.001c0.695 0 1.295-0.383 1.618-0.944l3.863 1.755c-1.085 1.456-2.802 2.389-4.737 2.389v0c-3.25 0-5.894-2.632-5.894-5.867zM14.895 10.122c0 0.441-0.362 0.8-0.806 0.8h-0.001c0 0 0 0 0 0-0.443 0-0.802-0.358-0.804-0.8v0c0-0.441 0.361-0.8 0.806-0.8s0.806 0.359 0.806 0.8zM2.464 25.146c-0.11 0.109-0.261 0.177-0.428 0.177s-0.317-0.067-0.427-0.176v0c-0.109-0.107-0.177-0.257-0.177-0.422s0.068-0.315 0.177-0.422v0l0.962-0.959 0.852 0.848-0.959 0.955zM5.678 28.88c-0.11 0.109-0.261 0.177-0.428 0.177s-0.317-0.067-0.427-0.176v0c-0.109-0.107-0.177-0.257-0.177-0.422s0.068-0.315 0.177-0.422v0l0.963-0.959 0.852 0.848-0.96 0.955zM9.16 25.411l-0.001 0.001-1.765 1.76-0.852-0.848 1.765-1.757c0.036-0.039 0.066-0.084 0.089-0.133l0.001-0.003c0.007-0.014 0.020-0.026 0.026-0.040 0.016-0.041 0.019-0.085 0.026-0.128 0.003-0.025 0.014-0.048 0.014-0.073 0-0.035-0.013-0.070-0.020-0.105-0.006-0.032-0.006-0.064-0.019-0.096-0.025-0.053-0.056-0.098-0.092-0.138v0c-0.010-0.012-0.014-0.027-0.025-0.038h-0.001l-0.001-0.002-1.607-1.6c-0.017-0.017-0.039-0.024-0.058-0.038-0.025-0.020-0.052-0.039-0.081-0.056l-0.006-0.002c-0.026-0.012-0.056-0.023-0.087-0.030l-0.006-0.002c-0.029-0.009-0.064-0.016-0.099-0.020h-0.004l-0.023-0.001c-0.027 0-0.053 0.002-0.078 0.005h0.006c-0.036 0.005-0.069 0.009-0.104 0.021-0.037 0.013-0.069 0.029-0.098 0.047l0.004-0.002c-0.020 0.011-0.043 0.015-0.061 0.029l-1.774 1.324-0.901-0.897 2.399-2.386 4.36 4.289-0.928 0.919zM15.979 18.394c-0.016-0.002-0.030 0.004-0.046 0.003l-0.027-0.001c-0.033 0-0.064 0.003-0.095 0.009h0.006c-0.070 0.011-0.134 0.036-0.189 0.071l0.004-0.002c-0.031 0.019-0.058 0.040-0.083 0.062v0c-0.013 0.011-0.028 0.016-0.040 0.029l-4.698 5.146-4.328-4.256 2.833-2.818c0.095-0.097 0.154-0.229 0.154-0.376 0-0.295-0.238-0.534-0.532-0.535h-0.002l-2.219 0.013 0.028-1.607 3.104 0.027c1.26 1.297 3.021 2.101 4.97 2.101 0.003 0 0.006 0 0.009 0h0.003c0.438 0 0.864-0.046 1.28-0.122 0.040 0.032 0.080 0.064 0.129 0.085l2.41 0.96 0.152 0.759 0.178 0.885-3.003-0.427zM20.020 18.572l-0.313-1.558 1.446-1.080 0.946 1.257-2.080 1.381zM23.773 15.741l-0.837 0.785-0.931-1.237 0.831-0.637c0.122-0.093 0.277-0.15 0.445-0.15 0.035 0 0.069 0.002 0.102 0.007h-0.004c0.352 0.049 0.62 0.348 0.621 0.71v0c0 0 0 0.001 0 0.002 0 0.205-0.087 0.389-0.226 0.519v0z"></path>
<path fill="#212121" d="M13.602 18.544l-2.143-2.134c-0.096-0.097-0.229-0.156-0.376-0.156s-0.28 0.060-0.376 0.156v0l-2.143 2.133c-0.097 0.097-0.156 0.23-0.156 0.378s0.060 0.281 0.156 0.378v0l2.142 2.134c0.096 0.097 0.229 0.156 0.376 0.156s0.28-0.060 0.376-0.156v0l2.143-2.134c0.097-0.096 0.158-0.23 0.158-0.378s-0.060-0.282-0.158-0.378v0zM11.083 20.303l-1.387-1.381 1.386-1.381 1.387 1.381-1.387 1.381zM17.164 5.071l-0.258 1.036c0.071 0.018 1.738 0.452 1.738 2.149h1.067c0-2.017-1.666-2.965-2.547-3.184zM19.711 9.322h-1.067v1.066h1.067v-1.066z"></path>
</svg>
