<!-- Generated by IcoMoon.io -->
<svg version="1.1" xmlns="http://www.w3.org/2000/svg" width="29" height="32" viewBox="0 0 29 32">
<title>logo</title>
<path fill="#afb1b8" d="M3.84 0l4.677 4.428h13.046v12.351l4.677 4.428v-21.206h-22.4z"></path>
<path fill="#afb1b8" d="M0 4.241v20.6h21.76v-8.188l-13.105-12.407-8.655-0.005zM17.615 21.828h-14.172v-13.855h1.002v12.917h13.17v0.938zM6.266 28.662l0.524-1.078h0.438l-0.764 1.437v0.838h-0.397v-0.838l-0.764-1.437h0.439l0.524 1.078zM8.513 29.329h-0.881l-0.184 0.53h-0.411l0.859-2.275h0.355l0.861 2.275h-0.413l-0.186-0.53zM7.743 29.010h0.659l-0.33-0.944-0.33 0.944zM10.071 29.244c0-0.105 0.029-0.202 0.086-0.289 0.058-0.089 0.17-0.193 0.339-0.314-0.067-0.081-0.128-0.171-0.178-0.268l-0.008-0.016c-0.031-0.066-0.050-0.144-0.052-0.225v-0.001c0-0.179 0.054-0.319 0.163-0.422s0.254-0.156 0.437-0.156c0.007 0 0.015 0 0.023 0 0.147 0 0.282 0.056 0.383 0.148v0c0.106 0.097 0.16 0.218 0.16 0.361v0.003c0 0 0 0.001 0 0.001 0 0.097-0.028 0.187-0.075 0.263l0.002-0.004c-0.063 0.094-0.14 0.172-0.23 0.234l-0.006 0.004-0.155 0.113 0.44 0.518c0.060-0.118 0.095-0.258 0.095-0.406 0-0.004 0-0.008 0-0.012v0.001h0.33c0 0.28-0.065 0.509-0.196 0.689l0.334 0.396h-0.44l-0.128-0.152c-0.153 0.114-0.345 0.183-0.554 0.183-0.001 0-0.003 0-0.004 0h-0.024c-0.225 0-0.405-0.060-0.54-0.179-0.124-0.11-0.202-0.269-0.202-0.447v-0.020zM10.824 29.587c0.137-0.001 0.262-0.049 0.36-0.129l-0.001 0.001-0.497-0.586-0.049 0.035c-0.125 0.095-0.188 0.203-0.188 0.325 0 0.105 0.034 0.191 0.102 0.256 0.067 0.061 0.156 0.099 0.254 0.099 0 0 0 0 0 0h0.018zM10.614 28.121c0 0.088 0.054 0.197 0.161 0.33l0.173-0.118 0.049-0.039c0.059-0.052 0.097-0.128 0.097-0.212v-0.011c0-0.059-0.026-0.112-0.067-0.149v0c-0.042-0.040-0.098-0.064-0.16-0.064-0.001 0-0.001 0-0.002 0h-0.019c-0.066 0-0.126 0.029-0.167 0.075v0c-0.041 0.048-0.066 0.11-0.066 0.179v0 0.010zM14.748 29.118c-0.023 0.243-0.113 0.432-0.269 0.568s-0.364 0.204-0.623 0.204c-0.005 0-0.011 0-0.017 0-0.171 0-0.331-0.048-0.467-0.13l0.004 0.002c-0.137-0.089-0.246-0.212-0.315-0.357l-0.004-0.010c-0.074-0.158-0.117-0.344-0.117-0.539 0-0.002 0-0.003 0-0.005v0-0.22c0-0.214 0.038-0.403 0.114-0.567 0.072-0.157 0.183-0.286 0.323-0.376l0.003-0.002c0.135-0.084 0.299-0.133 0.475-0.133 0.007 0 0.013 0 0.020 0h-0.001c0.251 0 0.453 0.068 0.606 0.205s0.243 0.329 0.268 0.578h-0.394c-0.019-0.163-0.067-0.281-0.144-0.353s-0.188-0.109-0.336-0.109c-0.007 0-0.015-0.001-0.023-0.001-0.153 0-0.289 0.074-0.373 0.188l-0.001 0.001c-0.092 0.125-0.138 0.309-0.141 0.552v0.202c0 0.246 0.044 0.433 0.132 0.563s0.218 0.194 0.387 0.194c0.155 0 0.272-0.035 0.35-0.105s0.128-0.186 0.148-0.348h0.394zM16.918 28.78c0 0.223-0.038 0.419-0.115 0.588-0.072 0.162-0.186 0.294-0.329 0.386l-0.003 0.002c-0.135 0.084-0.299 0.134-0.474 0.134-0.007 0-0.014 0-0.021 0h0.001c-0.004 0-0.010 0-0.015 0-0.177 0-0.342-0.050-0.482-0.136l0.004 0.002c-0.144-0.093-0.258-0.222-0.33-0.375l-0.002-0.005-0.002-0.006c-0.075-0.162-0.119-0.351-0.119-0.551 0-0.001 0-0.003 0-0.004v0-0.15c0-0.222 0.038-0.418 0.117-0.588s0.19-0.3 0.333-0.389c0.144-0.091 0.308-0.136 0.493-0.136s0.35 0.045 0.493 0.134c0.143 0.089 0.255 0.217 0.333 0.384s0.118 0.362 0.118 0.584v0.126zM16.522 28.662c0-0.252-0.048-0.445-0.143-0.58-0.085-0.123-0.225-0.202-0.383-0.202 0 0 0 0-0.001 0v0l-0.022 0.001h-0.015c0 0 0 0 0 0-0.158 0-0.298 0.078-0.383 0.199l-0.001 0.001-0.001 0.002c-0.096 0.133-0.145 0.323-0.147 0.567v0.131c0 0.25 0.049 0.444 0.146 0.58s0.233 0.205 0.406 0.205c0.175 0 0.31-0.067 0.403-0.2 0.095-0.133 0.142-0.328 0.142-0.584v-0.118z"></path>
</svg>
