<!-- Generated by IcoMoon.io -->
<svg version="1.1" xmlns="http://www.w3.org/2000/svg" width="25" height="32" viewBox="0 0 25 32">
<title>logo-2</title>
<path fill="#afb1b8" d="M10.447 1.806h0.084c0.156 0 0.324 0.015 0.49 0.030 0.807 0.058 1.552 0.175 2.275 0.348l-0.095-0.019v-1.762c-0.641-0.172-1.394-0.298-2.167-0.355l-0.040-0.002-0.042-0.002c-0.254-0.020-0.571-0.035-0.889-0.043h-0.284c-1.523 0.006-3.040 0.201-4.514 0.582-1.816 0.46-3.411 1.128-4.875 1.994l0.085-0.046v17.475c1.273-0.715 2.747-1.314 4.299-1.721l0.132-0.029 0.135-0.029c1.123-0.3 2.433-0.51 3.78-0.586l0.052-0.002h0.052c0.217-0.011 0.433-0.017 0.655-0.018v-1.791c-1.78 0.024-3.493 0.264-5.129 0.695l0.147-0.033c-0.603 0.157-1.185 0.326-1.731 0.513l-0.623 0.212v-13.626l0.266-0.128c1.89-0.918 4.096-1.513 6.425-1.649l0.047-0.002 0.028-0.001 0.029 0.001h-0.001c0.248-0.012 0.497-0.018 0.742-0.018h0.28c0.129 0.003 0.258 0.006 0.388 0.014z"></path>
<path fill="#afb1b8" d="M14.837 3.651h-0.016c-0.915 0-1.811-0.077-2.684-0.225l0.094 0.013c-0.277-0.047-0.55-0.103-0.814-0.164v17.275c1.12 0.277 2.271 0.412 3.425 0.404 1.653-0.006 3.252-0.228 4.773-0.64l-0.129 0.030-0.128 0.029c1.849-0.468 3.473-1.152 4.96-2.041l-0.168 0.093v-17.163c-1.273 0.714-2.746 1.313-4.296 1.721l-0.133 0.030-0.136 0.030c-1.423 0.381-3.057 0.603-4.742 0.609h-0.004zM21.745 3.95l0.623-0.209v13.63l-0.266 0.129c-0.903 0.442-1.962 0.834-3.065 1.118l-0.119 0.026c-1.221 0.329-2.624 0.521-4.070 0.527h-0.004c-0.411 0-0.818-0.017-1.214-0.052l-0.426-0.038v-14.017l0.497 0.033c0.361 0.023 0.735 0.034 1.141 0.034 1.893-0.005 3.725-0.259 5.468-0.73l-0.148 0.034-0.147 0.033c0.782-0.205 1.36-0.382 1.929-0.577l-0.198 0.059zM1.684 25.977c-0.167-0.173-0.401-0.281-0.66-0.281 0 0-0.001 0-0.001 0v0l-0.034 0.001h-0.012c-0.139 0-0.272 0.028-0.393 0.078l0.007-0.003c-0.234 0.094-0.417 0.277-0.508 0.506l-0.004 0.012c-0.045 0.11-0.071 0.237-0.071 0.371 0 0.005 0 0.011 0 0.016v-0.001 2.335c-0.006 0.164 0.026 0.328 0.092 0.479 0.055 0.12 0.135 0.226 0.234 0.313 0.089 0.075 0.197 0.133 0.314 0.165l0.006 0.001c0.114 0.031 0.231 0.048 0.349 0.048 0.536-0.010 0.966-0.445 0.968-0.982v-0.261h-0.611v0.222c0 0.070-0.013 0.136-0.037 0.198l0.001-0.004c-0.021 0.052-0.051 0.096-0.089 0.132v0c-0.070 0.054-0.158 0.088-0.255 0.089v0c-0.011 0.001-0.024 0.002-0.037 0.002-0.102 0-0.193-0.050-0.249-0.126l-0.002-0.002c-0.051-0.082-0.082-0.182-0.082-0.288 0 0 0 0 0-0.001v0l0.001-0.024v0.001-2.177c0-0.007 0-0.015 0-0.024 0-0.118 0.028-0.23 0.077-0.33l-0.002 0.004c0.056-0.087 0.152-0.143 0.261-0.143 0 0 0.001 0 0.001 0v0l0.038 0.002h0.011c0.107 0 0.201 0.052 0.26 0.131l0.001 0.001c0.063 0.082 0.101 0.186 0.101 0.299 0 0 0 0.001 0 0.001v0 0.215h0.604v-0.249c0-0.143-0.027-0.28-0.077-0.405l0.003 0.007c-0.048-0.128-0.117-0.237-0.205-0.329v0zM5.31 25.951c-0.183-0.16-0.425-0.258-0.689-0.258-0.132 0-0.259 0.024-0.376 0.069l0.007-0.002c-0.249 0.090-0.447 0.272-0.555 0.505l-0.004 0.012c-0.056 0.127-0.089 0.274-0.089 0.43 0 0.008 0 0.016 0 0.023v-0.001 2.239c-0.004 0.158 0.026 0.314 0.089 0.458 0.057 0.124 0.137 0.229 0.236 0.312l0.001 0.001c0.090 0.084 0.197 0.15 0.315 0.195l0.007 0.002c0.108 0.041 0.233 0.065 0.364 0.065 0.267 0 0.511-0.1 0.696-0.264l-0.002 0.002c0.096-0.086 0.173-0.19 0.228-0.307l0.002-0.006c0.063-0.144 0.093-0.301 0.089-0.458v-2.26c0-0.156-0.033-0.304-0.092-0.438l0.003 0.007c-0.057-0.128-0.135-0.236-0.23-0.327v0zM5.025 28.969l0.002 0.035c0 0 0 0.001 0 0.001 0 0.113-0.047 0.215-0.123 0.288v0c-0.077 0.065-0.178 0.105-0.287 0.105s-0.21-0.040-0.288-0.106l0.002 0.002c-0.076-0.073-0.123-0.175-0.123-0.288 0-0.014 0.001-0.027 0.002-0.040v0.004-2.239l-0.001-0.034c0 0 0 0 0 0 0-0.113 0.047-0.216 0.123-0.288v0c0.077-0.065 0.178-0.105 0.287-0.105s0.21 0.040 0.288 0.106l-0.002-0.002c0.076 0.073 0.123 0.175 0.123 0.288 0 0.014-0.001 0.027-0.002 0.040v-0.004 2.24zM10.072 29.969v-4.24h-0.586l-0.771 2.244h-0.010l-0.777-2.244h-0.58v4.239h0.606v-2.578h0.011l0.593 1.823h0.302l0.598-1.823h0.010v2.578h0.606zM13.513 26.027c-0.091-0.103-0.206-0.182-0.336-0.23l-0.006-0.002c-0.123-0.042-0.264-0.066-0.411-0.066-0.002 0-0.004 0-0.006 0h-0.923v4.24h0.604v-1.656h0.311c0.189 0.009 0.376-0.031 0.545-0.116 0.137-0.077 0.248-0.186 0.327-0.316l0.004-0.008c0.067-0.106 0.115-0.23 0.137-0.363l0.001-0.006c0.021-0.133 0.033-0.287 0.033-0.444v-0.038c0.001-0.021 0.001-0.045 0.001-0.070 0-0.19-0.022-0.375-0.063-0.553l0.003 0.016c-0.043-0.153-0.12-0.284-0.223-0.39v0zM13.201 27.319c-0.003 0.082-0.024 0.159-0.058 0.227l0.002-0.006c-0.035 0.064-0.088 0.115-0.152 0.146l-0.004 0.002c-0.074 0.034-0.161 0.054-0.252 0.054-0.001 0-0.001 0-0.002 0v0l-0.033-0.001h-0.274v-1.441h0.311l0.029-0.001c0.088 0 0.172 0.020 0.247 0.055l-0.004-0.002c0.062 0.036 0.11 0.089 0.14 0.152l0.002 0.004c0.032 0.069 0.051 0.15 0.053 0.235v0.283c0 0.098 0.006 0.201 0 0.291h-0.006zM16.374 25.729h-0.495l-0.934 4.24h0.604l0.177-0.911h0.823l0.178 0.911h0.604l-0.957-4.24zM15.817 28.481l0.297-1.537h0.011l0.295 1.537h-0.604zM20.277 28.283h-0.011l-0.913-2.554h-0.58v4.24h0.604v-2.55h0.012l0.923 2.549h0.568v-4.239h-0.604v2.554zM23.968 25.729l-0.486 1.686h-0.012l-0.486-1.686h-0.639l0.83 2.448v1.791h0.604v-1.791l0.83-2.447h-0.64zM0 31.166h0.291v0.817h0.198v-0.817h0.289v-0.167h-0.778v0.168zM2.447 30.998l-0.382 0.985h0.21l0.081-0.224h0.392l0.084 0.224h0.215l-0.391-0.985h-0.21zM2.417 31.593l0.134-0.365 0.134 0.365h-0.268zM4.866 31.62h0.228v0.127c-0.064 0.051-0.145 0.082-0.234 0.083h-0.014c-0.079 0-0.149-0.037-0.195-0.093v0c-0.046-0.065-0.073-0.145-0.073-0.232 0-0.001 0-0.001 0-0.002v0l0.001-0.023v0.001c0-0.219 0.095-0.329 0.283-0.329l0.021-0.001c0.097 0 0.178 0.067 0.201 0.157v0.001l0.194-0.038c-0.042-0.192-0.18-0.289-0.417-0.289h-0.013c0 0-0.001 0-0.001 0-0.127 0-0.243 0.048-0.33 0.127v0c-0.088 0.087-0.143 0.208-0.143 0.341 0 0.014 0.001 0.027 0.002 0.040v-0.004 0.023c0 0.132 0.048 0.254 0.127 0.347l-0.001-0.001c0.087 0.090 0.209 0.146 0.343 0.146l0.032-0.001h0.015c0.155 0 0.296-0.060 0.402-0.157v-0.388h-0.426v0.166zM7.337 30.998h-0.199v0.985h0.689v-0.167h-0.49v-0.817zM9.426 30.998h-0.199v0.985h0.199v-0.985zM11.469 31.655l-0.404-0.657h-0.193v0.985h0.185v-0.643l0.396 0.643h0.198v-0.985h-0.182v0.658zM13.315 31.549h0.49v-0.167h-0.49v-0.215h0.527v-0.168h-0.727v0.985h0.747v-0.167h-0.548v-0.266zM17.792 31.386h-0.388v-0.388h-0.198v0.984h0.198v-0.431h0.388v0.431h0.198v-0.985h-0.198v0.388zM19.649 31.549h0.492v-0.167h-0.492v-0.215h0.529v-0.168h-0.726v0.985h0.746v-0.167h-0.548v-0.266zM22.168 31.55c0.172-0.027 0.258-0.118 0.258-0.274 0.001-0.009 0.002-0.020 0.002-0.031 0-0.078-0.038-0.146-0.097-0.188h-0.002c-0.073-0.037-0.158-0.059-0.249-0.059 0 0-0.001 0-0.001 0v0l-0.040 0.001h-0.415v0.984h0.198v-0.412h0.055c0.039 0 0.076 0.008 0.109 0.023l-0.002-0.001c0.029 0.018 0.053 0.042 0.069 0.071l0.001 0.001 0.215 0.313h0.236l-0.12-0.192c-0.054-0.095-0.126-0.174-0.213-0.233l-0.004-0.004zM21.969 31.413h-0.146v-0.247h0.156c0.013-0.001 0.028-0.002 0.044-0.002 0.058 0 0.113 0.009 0.165 0.027l-0.008-0.002c0.026 0.024 0.043 0.058 0.043 0.096 0 0.042-0.020 0.080-0.051 0.104v0c-0.048 0.016-0.104 0.025-0.162 0.025-0.001 0-0.001 0-0.002 0v0l-0.039-0.001h0.002zM24.068 31.549h0.49v-0.167h-0.49v-0.215h0.529v-0.168h-0.728v0.985h0.747v-0.167h-0.548v-0.266z"></path>
</svg>
