<!-- Generated by IcoMoon.io -->
<svg version="1.1" xmlns="http://www.w3.org/2000/svg" width="31" height="32" viewBox="0 0 31 32">
<title>logo-3</title>
<path fill="#afb1b8" d="M4.722 31.103c0.023 0.001 0.044 0.010 0.060 0.025l0.153 0.161c-0.119 0.13-0.266 0.234-0.431 0.304-0.168 0.069-0.364 0.11-0.569 0.11-0.014 0-0.029 0-0.043-0.001h-0.029c0 0 0 0 0 0-0.199 0-0.39-0.039-0.564-0.11l0.020 0.008c-0.329-0.133-0.583-0.393-0.706-0.716l-0.006-0.018c-0.061-0.163-0.097-0.351-0.097-0.547 0-0.001 0-0.002 0-0.003v0-0.044c0-0.198 0.038-0.387 0.108-0.56l-0.004 0.010c0.142-0.34 0.412-0.602 0.748-0.731l0.009-0.003c0.188-0.070 0.389-0.104 0.591-0.102 0.010 0 0.022 0 0.034 0 0.185 0 0.362 0.034 0.526 0.097l-0.010-0.003c0.151 0.063 0.29 0.149 0.412 0.257l-0.129 0.171c-0.009 0.012-0.020 0.022-0.032 0.031v0c-0.012 0.009-0.028 0.014-0.044 0.014 0 0 0 0-0.001 0h-0.006c-0.021-0.001-0.040-0.008-0.056-0.019v0l-0.068-0.045-0.096-0.059c-0.086-0.046-0.185-0.081-0.29-0.1l-0.012-0.002c-0.063-0.011-0.135-0.018-0.209-0.018h-0.035c-0.147 0-0.288 0.028-0.417 0.079l0.008-0.003c-0.13 0.051-0.241 0.124-0.333 0.216v0c-0.092 0.095-0.165 0.209-0.214 0.335l-0.002 0.007c-0.050 0.13-0.079 0.28-0.079 0.437 0 0.005 0 0.010 0 0.016v-0.001c-0.002 0.156 0.025 0.313 0.079 0.46 0.046 0.126 0.119 0.242 0.212 0.341 0.087 0.091 0.193 0.163 0.312 0.21l0.006 0.002c0.125 0.049 0.259 0.074 0.394 0.073 0.078 0.001 0.156-0.004 0.234-0.015 0.197-0.023 0.371-0.108 0.505-0.235v0c0.019-0.017 0.044-0.029 0.072-0.030v0zM9.144 30.296c0.002 0.194-0.033 0.387-0.103 0.568-0.067 0.172-0.165 0.319-0.288 0.44v0c-0.124 0.121-0.271 0.218-0.435 0.283l-0.018 0.006c-0.173 0.065-0.373 0.103-0.583 0.103-0.213 0-0.417-0.039-0.605-0.111l0.024 0.008c-0.175-0.069-0.325-0.167-0.45-0.29v0c-0.121-0.121-0.219-0.266-0.285-0.427l-0.006-0.018c-0.065-0.169-0.103-0.364-0.103-0.568 0-0.208 0.039-0.407 0.111-0.59l-0.008 0.022c0.070-0.174 0.168-0.322 0.29-0.447v0c0.123-0.117 0.27-0.21 0.432-0.273l0.018-0.006c0.173-0.066 0.373-0.105 0.583-0.105 0.213 0 0.417 0.040 0.605 0.113l-0.011-0.004-0.012-0.004c0.34 0.131 0.604 0.392 0.738 0.72l0.003 0.009c0.071 0.182 0.106 0.376 0.104 0.571zM8.742 30.296v-0.024c0-0.155-0.027-0.303-0.076-0.441l0.003 0.009c-0.087-0.254-0.275-0.453-0.516-0.552l-0.012-0.004c-0.126-0.048-0.271-0.076-0.423-0.076-0.155 0-0.303 0.029-0.44 0.082l0.008-0.003 0.009-0.003c-0.249 0.098-0.44 0.296-0.526 0.544l-0.004 0.012c-0.046 0.136-0.073 0.293-0.073 0.456s0.027 0.32 0.076 0.466l-0.003-0.010c0.087 0.254 0.276 0.453 0.518 0.55l0.012 0.004c0.273 0.097 0.573 0.097 0.846 0 0.127-0.050 0.235-0.122 0.324-0.214v0c0.088-0.095 0.158-0.209 0.203-0.334l0.002-0.007c0.046-0.128 0.073-0.275 0.073-0.429 0-0.010 0-0.019 0-0.029v0.001zM12.16 30.774l0.041 0.102c0.015-0.036 0.028-0.069 0.044-0.102 0.017-0.040 0.034-0.073 0.052-0.105l-0.002 0.005 0.978-1.694c0.019-0.030 0.037-0.048 0.056-0.053s0.041-0.009 0.064-0.009c0.001 0 0.001 0 0.002 0h0.303v2.755h-0.342v-2.11l-0.001-0.048 0.001-0.050v0.002l-0.984 1.718c-0.013 0.026-0.032 0.047-0.056 0.062h-0.002c-0.023 0.014-0.051 0.022-0.081 0.022 0 0-0.001 0-0.001 0h-0.057c-0.002 0-0.004 0-0.006 0-0.059 0-0.11-0.034-0.135-0.083v-0.002l-1.013-1.73v2.212h-0.331v-2.75h0.303c0.001 0 0.002 0 0.002 0 0.023 0 0.046 0.004 0.067 0.010h-0.004c0.023 0.011 0.042 0.029 0.053 0.051v0.002l0.999 1.696c0.018 0.028 0.035 0.060 0.048 0.094l0.001 0.004zM15.841 30.638v1.031h-0.383v-2.75h0.887c0.158 0 0.311 0.022 0.455 0.063l-0.012-0.003c0.129 0.036 0.242 0.095 0.339 0.172l-0.002-0.001c0.085 0.074 0.15 0.167 0.191 0.27 0.042 0.102 0.066 0.22 0.066 0.343 0 0.003 0 0.006 0 0.009v0c0 0.004 0 0.009 0 0.014 0 0.122-0.026 0.239-0.073 0.344l0.002-0.005c-0.049 0.109-0.118 0.2-0.204 0.273l-0.002 0.002c-0.094 0.079-0.205 0.141-0.326 0.179l-0.014 0.004c-0.13 0.041-0.279 0.064-0.434 0.064-0.009 0-0.019 0-0.028 0l-0.462-0.007zM15.841 30.342h0.464c0.1 0.002 0.201-0.013 0.296-0.042 0.083-0.027 0.154-0.068 0.216-0.121l-0.002 0.002c0.056-0.049 0.1-0.11 0.129-0.178l0.001-0.003c0.029-0.066 0.046-0.143 0.046-0.223 0-0.001 0-0.001 0-0.002v0-0.008l0.001-0.028c0-0.072-0.015-0.14-0.042-0.202l0.002 0.006c-0.032-0.074-0.077-0.136-0.133-0.188v0c-0.125-0.094-0.284-0.151-0.455-0.151-0.022 0-0.043 0.001-0.065 0.003h-0.458v1.134zM20.987 31.673h-0.308c-0.030 0-0.057-0.010-0.079-0.026v0c-0.021-0.017-0.038-0.038-0.049-0.062v-0.002l-0.26-0.665h-1.307l-0.27 0.665c-0.011 0.025-0.027 0.045-0.047 0.061v0c-0.022 0.017-0.051 0.028-0.082 0.028h-0.307l1.148-2.756h0.398l1.164 2.756zM19.092 30.65h1.079l-0.455-1.122c-0.029-0.067-0.057-0.148-0.080-0.232l-0.006-0.026-0.044 0.144c-0.016 0.052-0.031 0.094-0.048 0.134l0.003-0.008 0.003-0.009-0.452 1.119zM22.64 28.93c0.023 0.013 0.043 0.030 0.058 0.050l1.674 2.076v-2.139h0.342v2.756h-0.196c0 0-0.001 0-0.001 0-0.026 0-0.052-0.006-0.074-0.017h0.002c-0.024-0.014-0.044-0.031-0.061-0.051v0l-1.674-2.075c0.001 0.014 0.002 0.031 0.002 0.047s-0.001 0.033-0.002 0.050v-0.002 2.049h-0.342v-2.756h0.203c0.024 0 0.047 0.004 0.068 0.013zM27.537 30.577v1.094h-0.383v-1.094l-1.058-1.66h0.35c0.028 0 0.054 0.009 0.075 0.024 0.020 0.017 0.038 0.037 0.051 0.060l0.002 0.002 0.662 1.070c0.043 0.070 0.082 0.15 0.113 0.235l0.003 0.009 0.050-0.118c0.022-0.050 0.044-0.093 0.070-0.134l-0.004 0.008 0.653-1.078c0.014-0.022 0.031-0.042 0.050-0.059v0c0.020-0.017 0.046-0.027 0.075-0.027 0 0 0.001 0 0.001 0h0.352l-1.060 1.667zM11.971 24.293c0.167 0.020 0.335 0.037 0.506 0.051 2.582-1.101 4.767-2.902 6.281-5.18s2.29-4.93 2.231-7.625l-2.846-2.712c0.189 0.894 0.297 1.921 0.297 2.974 0 2.015-0.396 3.937-1.115 5.694l0.036-0.1c-1.090 2.731-2.957 5.12-5.39 6.899z"></path>
<path fill="#afb1b8" d="M10.954 24.167l0.077 0.015c2.6-1.773 4.583-4.247 5.692-7.104 0.627-1.564 0.991-3.378 0.991-5.276 0-1.296-0.17-2.553-0.488-3.748l0.023 0.101-4.054-3.862c1.269 2.397 2.015 5.239 2.015 8.255 0 0.701-0.040 1.393-0.119 2.074l0.008-0.083c-0.397 3.519-1.834 6.857-4.144 9.628zM24.704 14.724c-0.688 2.962-2.361 5.632-4.77 7.616-0.643 0.537-1.36 1.036-2.118 1.471l-0.073 0.039-0.075 0.039c2.046-0.581 3.816-1.564 5.301-2.864l-0.032 0.026c1.443-1.263 2.59-2.826 3.349-4.596l0.032-0.083 0.031-0.084-1.645-1.565z"></path>
<path fill="#afb1b8" d="M24.060 14.288l-2.341-2.23c-0.049 2.703-0.875 5.204-2.262 7.3l0.032-0.051 0.032-0.053c-1.394 2.169-3.373 3.943-5.729 5.137h0.012c0.525 0 1.049-0.030 1.572-0.089 2.243-0.884 4.136-2.231 5.635-3.934l0.014-0.016 0.014-0.017c1.438-1.637 2.489-3.648 2.988-5.869l0.017-0.089 0.016-0.089zM11.294 2.664l-2.793-2.664c-2.497 0.919-4.644 2.535-6.16 4.636s-2.333 4.589-2.34 7.139c0.010 2.818 1.005 5.552 2.829 7.77s4.372 3.793 7.242 4.476c2.562-2.973 4.061-6.647 4.281-10.488s-0.851-7.648-3.059-10.87zM30.512 13.878c-0.010-3.343-1.409-6.547-3.89-8.91s-5.843-3.696-9.352-3.706c-0.006 0-0.013 0-0.020 0-1.695 0-3.317 0.308-4.815 0.872l0.094-0.031 17.099 16.29c0.559-1.335 0.884-2.886 0.884-4.513v-0.001z"></path>
</svg>
