<!-- Generated by IcoMoon.io -->
<svg version="1.1" xmlns="http://www.w3.org/2000/svg" width="20" height="32" viewBox="0 0 20 32">
<title>smartphone</title>
<path fill="#757575" d="M17 0h-14c-1.654 0-3 1.346-3 3v26c0 1.654 1.346 3 3 3h14c1.654 0 3-1.346 3-3v-26c0-1.654-1.346-3-3-3zM3 2h14c0.552 0 1 0.448 1 1v0 21h-16v-21c0-0.552 0.448-1 1-1v0zM17 30h-14c-0.552 0-1-0.448-1-1v0-3h16v3c0 0.552-0.448 1-1 1v0z"></path>
<path fill="#757575" d="M4.708 27.478c0.18 0.163 0.293 0.398 0.293 0.66s-0.112 0.496-0.292 0.658l-0.002 0.002c-0.186 0.171-0.435 0.276-0.708 0.276s-0.523-0.105-0.709-0.276l0.002 0.002c-0.18-0.163-0.293-0.398-0.293-0.66s0.112-0.496 0.292-0.658l0.002-0.002c0.186-0.171 0.435-0.276 0.709-0.276s0.523 0.105 0.709 0.276l-0.002-0.002z"></path>
</svg>
